<svg width="61" height="75" viewBox="0 0 61 75" fill="none" xmlns="http://www.w3.org/2000/svg">
<path fill-rule="evenodd" clip-rule="evenodd" d="M61 30.4607C61 43.3323 51.9438 57.3598 34.0662 72.6932C33.0721 73.5461 31.8046 74.0145 30.4941 74.0133C29.1836 74.0122 27.917 73.5416 26.9245 72.687L25.742 71.6622C8.65574 56.7287 0 43.0448 0 30.4607C0 22.382 3.21338 14.6342 8.93324 8.92173C14.6531 3.20924 22.4109 0 30.5 0C32.8044 0 38.1453 0.406667 41.0733 2.03333C38.9044 6.1 37.4947 14.4773 49.2067 15.4533C48.9356 19.3844 50.752 26.5147 60.1867 23.5867C60.4578 24.6449 61 27.5012 61 30.4607ZM30.5 42.2933C36.5641 42.2933 41.48 37.3774 41.48 31.3133C41.48 25.2492 36.5641 20.3333 30.5 20.3333C24.4359 20.3333 19.52 25.2492 19.52 31.3133C19.52 37.3774 24.4359 42.2933 30.5 42.2933Z" fill="#FE6161"/>
</svg>
