<svg width="42" height="41" viewBox="0 0 42 41" fill="none" xmlns="http://www.w3.org/2000/svg">
<path d="M14.75 8.73287V38.1875M27.5 1V30.75M2 13.1338C2 10.0015 2 8.4375 2.83512 7.52375C3.13068 7.19869 3.49025 6.93824 3.89125 6.75875C5.02175 6.25725 6.50713 6.75237 9.47788 7.74262C11.7453 8.49912 12.8779 8.87738 14.0254 8.837C14.4463 8.82316 14.8649 8.76764 15.2749 8.67125C16.3905 8.40563 17.385 7.74263 19.374 6.41875L22.3107 4.4595C24.8607 2.7595 26.1336 1.9095 27.5956 1.71612C29.0576 1.5185 30.5111 2.003 33.416 2.972L35.8916 3.7965C37.9954 4.49775 39.0472 4.84837 39.6486 5.6835C40.25 6.51863 40.25 7.63 40.25 9.84425V27.1184C40.25 30.2485 40.25 31.8146 39.4149 32.7284C39.1189 33.0519 38.7594 33.3109 38.3588 33.4891C37.2283 33.9927 35.7429 33.4976 32.7721 32.5074C30.5048 31.7509 29.3721 31.3726 28.2246 31.413C27.8037 31.4268 27.3851 31.4824 26.9751 31.5787C25.8595 31.8444 24.865 32.5074 22.876 33.8313L19.9393 35.7905C17.3893 37.4905 16.1164 38.3405 14.6544 38.5339C13.1924 38.7315 11.7389 38.247 8.834 37.278L6.35838 36.4535C4.25463 35.7523 3.20275 35.4016 2.60137 34.5665C2 33.7314 2 32.62 2 30.4057V13.1338Z" stroke="black" stroke-width="3.1875"/>
</svg>
