<svg width="41" height="31" viewBox="0 0 41 31" fill="none" xmlns="http://www.w3.org/2000/svg">
<path d="M0 2.58333C0 1.89819 0.269977 1.24111 0.750539 0.756641C1.2311 0.272172 1.88288 0 2.5625 0H38.4375C39.1171 0 39.7689 0.272172 40.2495 0.756641C40.73 1.24111 41 1.89819 41 2.58333C41 3.26848 40.73 3.92556 40.2495 4.41003C39.7689 4.89449 39.1171 5.16667 38.4375 5.16667H2.5625C1.88288 5.16667 1.2311 4.89449 0.750539 4.41003C0.269977 3.92556 0 3.26848 0 2.58333ZM0 15.5C0 14.8149 0.269977 14.1578 0.750539 13.6733C1.2311 13.1888 1.88288 12.9167 2.5625 12.9167H38.4375C39.1171 12.9167 39.7689 13.1888 40.2495 13.6733C40.73 14.1578 41 14.8149 41 15.5C41 16.1851 40.73 16.8422 40.2495 17.3267C39.7689 17.8112 39.1171 18.0833 38.4375 18.0833H2.5625C1.88288 18.0833 1.2311 17.8112 0.750539 17.3267C0.269977 16.8422 0 16.1851 0 15.5ZM0 28.4167C0 27.7315 0.269977 27.0744 0.750539 26.59C1.2311 26.1055 1.88288 25.8333 2.5625 25.8333H38.4375C39.1171 25.8333 39.7689 26.1055 40.2495 26.59C40.73 27.0744 41 27.7315 41 28.4167C41 29.1018 40.73 29.7589 40.2495 30.2434C39.7689 30.7278 39.1171 31 38.4375 31H2.5625C1.88288 31 1.2311 30.7278 0.750539 30.2434C0.269977 29.7589 0 29.1018 0 28.4167Z" fill="black"/>
</svg>
