<svg width="15" height="18" viewBox="0 0 15 18" fill="none" xmlns="http://www.w3.org/2000/svg">
<path fill-rule="evenodd" clip-rule="evenodd" d="M7.08182 17.8689L7.14545 17.9045L7.17091 17.9187C7.27185 17.972 7.38479 18 7.49955 18C7.6143 18 7.72724 17.972 7.82818 17.9187L7.85364 17.9053L7.91818 17.8689C7.97333 17.8375 8.05061 17.7921 8.15 17.7329C8.34727 17.6147 8.62636 17.4395 8.95909 17.2093C9.83242 16.606 10.6484 15.9271 11.3973 15.1807C13.1645 13.4117 15 10.7537 15 7.33388C15 5.38882 14.2098 3.52341 12.8033 2.14804C11.3968 0.772675 9.48912 0 7.5 0C5.51088 0 3.60322 0.772675 2.1967 2.14804C0.790176 3.52341 0 5.38882 0 7.33388C0 10.7528 1.83636 13.4117 3.60273 15.1807C4.35156 15.9271 5.16758 16.606 6.04091 17.2093C6.37871 17.4427 6.72596 17.6627 7.08182 17.8689ZM7.5 10.0007C8.22332 10.0007 8.91701 9.71978 9.42847 9.21964C9.93994 8.71951 10.2273 8.04118 10.2273 7.33388C10.2273 6.62659 9.93994 5.94826 9.42847 5.44812C8.91701 4.94799 8.22332 4.66702 7.5 4.66702C6.77668 4.66702 6.08299 4.94799 5.57153 5.44812C5.06006 5.94826 4.77273 6.62659 4.77273 7.33388C4.77273 8.04118 5.06006 8.71951 5.57153 9.21964C6.08299 9.71978 6.77668 10.0007 7.5 10.0007Z" fill="#333333"/>
</svg>
