<svg width="17" height="18" viewBox="0 0 17 18" fill="none" xmlns="http://www.w3.org/2000/svg">
<path fill-rule="evenodd" clip-rule="evenodd" d="M14.5836 6.70089C14.858 6.841 15.1587 6.91687 15.4645 6.92313C15.7983 6.92313 16.2155 6.83668 16.4658 6.66377C16.8916 8.53718 16.7018 10.5042 15.9265 12.2532C15.1513 14.0023 13.8349 15.4332 12.186 16.3194C10.5371 17.2057 8.64986 17.4964 6.8234 17.1457C4.99693 16.795 3.33565 15.8228 2.10276 14.3832C0.869877 12.9435 0.135888 11.1188 0.0170883 9.19813C-0.101712 7.27743 0.401472 5.37057 1.44692 3.77968C2.49236 2.18879 4.02028 1.00484 5.78859 0.415406C7.5569 -0.174024 9.46449 -0.135223 11.2091 0.52566C10.9966 0.915669 10.887 1.35678 10.8913 1.80461C10.8956 2.25245 11.0136 2.69122 11.2335 3.07679C11.4534 3.46237 11.7674 3.78114 12.144 4.00106C12.5205 4.22097 12.9463 4.33427 13.3785 4.32956H13.462C13.4007 4.64007 13.4062 4.96074 13.4779 5.26883C13.5496 5.57693 13.6858 5.86492 13.8769 6.1124C14.0679 6.35988 14.3092 6.56079 14.5836 6.70089ZM10.8754 8.65215C10.8754 10.0845 9.75468 11.2457 8.37221 11.2457C6.98973 11.2457 5.86902 10.0845 5.86902 8.65215C5.86902 7.21977 6.98973 6.05859 8.37221 6.05859C9.75468 6.05859 10.8754 7.21977 10.8754 8.65215Z" fill="white"/>
</svg>
